<svg width="21" height="19" viewBox="0 0 21 19" fill="none" xmlns="http://www.w3.org/2000/svg">
<path d="M7.30606 17.2952V14.4782C7.30606 13.7591 7.97778 13.1762 8.80639 13.1762H11.8354C12.2333 13.1762 12.6149 13.3134 12.8962 13.5575C13.1776 13.8017 13.3357 14.1329 13.3357 14.4782V17.2952C13.3332 17.5941 13.4683 17.8816 13.711 18.0938C13.9537 18.3059 14.2839 18.4253 14.6284 18.4253H16.6949C17.66 18.4274 18.5865 18.0962 19.2698 17.5047C19.9532 16.9132 20.3372 16.1101 20.3372 15.2725V7.24744C20.3372 6.57087 19.9916 5.9291 19.3936 5.49503L12.3638 0.622653C11.1409 -0.231641 9.38883 -0.204058 8.20249 0.688164L1.33306 5.49503C0.70678 5.9163 0.332462 6.55998 0.313965 7.24744V15.2643C0.313965 17.0101 1.94468 18.4253 3.95627 18.4253H5.97558C6.69108 18.4253 7.27257 17.9243 7.27775 17.3034L7.30606 17.2952Z"
    fill="#A8A3D7"/>
</svg>
