<svg width="21" height="19" viewBox="0 0 21 19" fill="none" xmlns="http://www.w3.org/2000/svg">
<path d="M15.2435 0C18.6797 0 20.593 1.63985 20.593 4.4497V13.9663C20.593 16.8223 18.6797 18.4253 15.2435 18.4253H5.92042C2.53872 18.4253 0.569763 16.8223 0.569763 13.9663V4.4497C0.569763 1.63985 2.53872 0 5.92042 0H15.2435ZM6.22077 12.6582C5.88705 12.6305 5.56445 12.7595 5.38647 12.999C5.20848 13.2293 5.20848 13.5334 5.38647 13.7729C5.56445 14.0032 5.88705 14.1414 6.22077 14.1045H14.942C15.3859 14.0677 15.7207 13.7535 15.7207 13.386C15.7207 13.0082 15.3859 12.695 14.942 12.6582H6.22077ZM14.942 8.45627H6.22077C5.74132 8.45627 5.3531 8.77964 5.3531 9.17578C5.3531 9.57192 5.74132 9.89437 6.22077 9.89437H14.942C15.4203 9.89437 15.8097 9.57192 15.8097 9.17578C15.8097 8.77964 15.4203 8.45627 14.942 8.45627ZM9.54574 4.28387H6.22077V4.29309C5.74132 4.29309 5.3531 4.61553 5.3531 5.01167C5.3531 5.40781 5.74132 5.73026 6.22077 5.73026H9.54574C10.0252 5.73026 10.4145 5.40781 10.4145 5.00154C10.4145 4.60632 10.0252 4.28387 9.54574 4.28387Z"
    fill="#A8A3D7"/>
</svg>
